# xmcd CD database file
#
# Track frame offsets:
#	150
#	12067
#	18058
#	51931
#	63875
#	74898
#	105869
#	131437
#	157759
#	178421
#	189369
#
# Disc length: 2943 seconds
#
# Revision: 0
# Processed by: cddbd v1.5PL3 Copyright (c) Steve Scherf et al.
# Submitted via: CDex 1.51
#
DISCID=850b7d0b
DTITLE=St. Thom Cats - Scratching the Service
DYEAR=2003
DGENRE=Jazz
TTITLE0=I Want Jesus To Walk With Me
TTITLE1=Jesu, Meine Freude
TTITLE2=Prelude and Blues on 'Ode to Joy'
TTITLE3=Now The Green Blade Riseth
TTITLE4=Liebster Jesu
TTITLE5=Hymns Across the Miles
TTITLE6=Amazingly Graceful Steps
TTITLE7=Birdsong on "Adoro Devote"
TTITLE8=Sunday School Melodies
TTITLE9=Blue Liebster
TTITLE10=When Morning Guilds The Skies
EXTD=YEAR: 2003
EXTT0=
EXTT1=
EXTT2=
EXTT3=
EXTT4=
EXTT5=
EXTT6=
EXTT7=
EXTT8=
EXTT9=
EXTT10=
PLAYORDER=
